<svg xmlns="http://www.w3.org/2000/svg" viewBox="0 0 512 512" role="img" aria-label="EV Guest logo">
  <defs>
    <linearGradient id="bg" x1="0" y1="0" x2="1" y2="1">
      <stop offset="0%" stop-color="#0f172a"/>
      <stop offset="100%" stop-color="#1e3a8a"/>
    </linearGradient>
    <linearGradient id="bolt" x1="0" y1="0" x2="1" y2="1">
      <stop offset="0%" stop-color="#22c55e"/>
      <stop offset="100%" stop-color="#38bdf8"/>
    </linearGradient>
  </defs>
  <rect x="24" y="24" width="464" height="464" rx="112" fill="url(#bg)"/>
  <path d="M116 284c0-77 63-140 140-140h44c61 0 114 40 132 98h-52c-16-29-47-48-80-48h-44c-48 0-88 37-91 84h105l-42 56H116v-50Z" fill="#e5f3ff" opacity="0.96"/>
  <path d="M296 120 220 274h56l-28 118 112-162h-60l36-110Z" fill="url(#bolt)"/>
  <circle cx="154" cy="332" r="18" fill="#93c5fd"/>
  <circle cx="356" cy="332" r="18" fill="#93c5fd"/>
  <path d="M118 332h276" stroke="#93c5fd" stroke-width="20" stroke-linecap="round"/>
</svg>
